<?xml version="1.0" standalone="no"?>
<!DOCTYPE svg PUBLIC "-//W3C//DTD SVG 20010904//EN"
 "http://www.w3.org/TR/2001/REC-SVG-20010904/DTD/svg10.dtd">
<svg version="1.0" xmlns="http://www.w3.org/2000/svg"
 width="860.000000pt" height="860.000000pt" viewBox="0 0 860.000000 860.000000"
 preserveAspectRatio="xMidYMid meet">

<g transform="translate(0.000000,860.000000) scale(0.100000,-0.100000)"
fill="#000000" stroke="none">
<path d="M4542 6790 c-14 -6 -34 -34 -53 -75 -16 -36 -57 -98 -90 -138 -217
-262 -324 -374 -449 -465 -47 -34 -94 -71 -105 -81 -11 -10 -31 -24 -45 -31
-14 -7 -43 -27 -65 -44 -21 -17 -62 -43 -90 -57 -27 -14 -84 -43 -125 -64 -95
-50 -156 -54 -179 -13 -14 25 -14 30 6 70 11 24 47 72 80 108 110 121 213 250
219 274 8 34 -3 64 -32 82 -31 21 -72 6 -108 -40 -43 -55 -99 -110 -159 -155
-32 -24 -115 -92 -185 -150 -70 -59 -146 -121 -168 -139 -56 -43 -89 -75 -159
-152 -32 -36 -72 -81 -90 -100 -204 -227 -374 -548 -467 -885 -80 -293 -97
-615 -49 -952 12 -78 25 -152 30 -165 6 -13 17 -54 26 -93 23 -102 115 -305
208 -460 114 -188 226 -324 402 -483 93 -85 256 -212 305 -237 18 -9 64 -37
101 -61 38 -24 104 -58 146 -75 43 -18 102 -43 131 -56 30 -14 60 -22 68 -19
8 3 14 1 14 -4 0 -13 174 -58 340 -90 82 -15 305 -19 480 -9 168 10 181 12
273 35 34 8 80 19 102 24 135 29 362 124 457 191 14 11 29 19 33 19 24 0 247
176 351 277 39 37 203 221 254 284 99 122 260 412 260 467 0 28 -27 82 -49 99
-21 16 -56 16 -69 0 -6 -7 -25 -57 -42 -112 -33 -105 -81 -202 -149 -305 -23
-34 -41 -66 -41 -71 0 -5 -84 -94 -187 -198 -191 -191 -272 -255 -419 -329
-65 -33 -178 -56 -221 -46 -34 8 -70 39 -91 79 -18 35 -27 420 -36 1620 -3
385 -9 826 -12 980 -11 504 9 565 193 565 97 0 155 -19 226 -73 53 -41 95 -47
119 -19 8 9 25 46 38 81 53 145 195 313 385 458 128 98 214 175 231 208 16 31
5 66 -28 89 -34 24 -61 19 -97 -17 -62 -65 -110 -81 -256 -85 -134 -4 -169 1
-339 47 -197 53 -529 216 -644 317 -30 26 -64 69 -79 98 -42 85 -55 94 -101
76z m568 -680 c0 -5 -2 -10 -4 -10 -3 0 -8 5 -11 10 -3 6 -1 10 4 10 6 0 11
-4 11 -10z m-260 -41 c0 -6 -4 -7 -10 -4 -5 3 -10 11 -10 16 0 6 5 7 10 4 6
-3 10 -11 10 -16z m75 -79 c3 -5 1 -10 -4 -10 -6 0 -11 5 -11 10 0 6 2 10 4
10 3 0 8 -4 11 -10z m-454 -21 c12 -6 30 -18 42 -27 128 -102 169 -175 198
-351 5 -31 12 -735 15 -1572 6 -1444 6 -1517 -11 -1553 -10 -21 -35 -49 -57
-63 -36 -24 -43 -25 -118 -19 -82 7 -218 35 -300 62 -67 23 -236 114 -313 170
-38 27 -77 54 -88 60 -62 35 -260 241 -306 319 -44 73 -55 110 -49 172 9 107
45 159 201 290 64 53 208 153 222 153 4 0 22 7 38 16 115 61 317 114 432 114
71 0 84 3 96 21 23 31 10 56 -52 99 -51 36 -97 94 -115 144 -34 96 -45 1627
-13 1810 16 92 36 132 78 153 30 16 74 16 100 2z m723 -8 c3 -5 -1 -11 -9 -14
-9 -4 -12 -1 -8 9 6 16 10 17 17 5z m-1714 -391 c47 -47 42 8 45 -515 1 -176
5 -536 10 -800 10 -617 1 -696 -90 -785 -54 -53 -112 -69 -166 -44 -30 13 -46
33 -87 108 -28 50 -57 111 -66 136 -8 25 -29 81 -46 125 -75 198 -117 537
-105 865 11 332 20 412 60 545 66 218 125 316 230 376 40 23 62 29 113 29 59
0 64 -2 102 -40z m430 -290 c0 -5 -4 -10 -10 -10 -5 0 -10 5 -10 10 0 6 5 10
10 10 6 0 10 -4 10 -10z m-1200 -55 c11 -13 10 -14 -4 -9 -9 3 -16 10 -16 15
0 13 6 11 20 -6z m310 11 c0 -3 -4 -8 -10 -11 -5 -3 -10 -1 -10 4 0 6 5 11 10
11 6 0 10 -2 10 -4z m-433 -1128 c-3 -8 -6 -5 -6 6 -1 11 2 17 5 13 3 -3 4
-12 1 -19z m1358 -78 c3 -5 -1 -10 -9 -10 -9 0 -16 5 -16 10 0 6 4 10 9 10 6
0 13 -4 16 -10z m-1368 -42 c-3 -8 -6 -5 -6 6 -1 11 2 17 5 13 3 -3 4 -12 1
-19z m1373 -58 c0 -5 -2 -10 -4 -10 -3 0 -8 5 -11 10 -3 6 -1 10 4 10 6 0 11
-4 11 -10z m-1355 -49 c3 -5 1 -12 -5 -16 -5 -3 -10 1 -10 9 0 18 6 21 15 7z
m609 -1127 c10 -25 -1 -29 -14 -5 -6 12 -7 21 -1 21 5 0 12 -7 15 -16z m136
-68 c0 -11 -19 -15 -25 -6 -3 5 1 10 9 10 9 0 16 -2 16 -4z m-80 -40 c0 -3 -4
-8 -10 -11 -5 -3 -10 -1 -10 4 0 6 5 11 10 11 6 0 10 -2 10 -4z m593 -326 c-3
-11 -8 -20 -12 -20 -4 0 -7 9 -8 20 -1 11 4 20 12 20 8 0 11 -7 8 -20z m947
-90 c0 -5 -2 -10 -4 -10 -3 0 -8 5 -11 10 -3 6 -1 10 4 10 6 0 11 -4 11 -10z
m5 -30 c-3 -5 -11 -10 -16 -10 -6 0 -7 5 -4 10 3 6 11 10 16 10 6 0 7 -4 4
-10z"/>
</g>
</svg>
